<?xml version="1.0" encoding="UTF-8" standalone="no"?>
<!-- Created with Inkscape (http://www.inkscape.org/) -->

<svg
   width="210mm"
   height="297mm"
   viewBox="0 0 210 297"
   version="1.1"
   id="svg5"
   xml:space="preserve"
   inkscape:version="1.2.2 (b0a8486541, 2022-12-01)"
   sodipodi:docname="Engine Logo.svg"
   inkscape:export-filename="Engine Logo.png"
   inkscape:export-xdpi="61.927616"
   inkscape:export-ydpi="61.927616"
   xmlns:inkscape="http://www.inkscape.org/namespaces/inkscape"
   xmlns:sodipodi="http://sodipodi.sourceforge.net/DTD/sodipodi-0.dtd"
   xmlns="http://www.w3.org/2000/svg"
   xmlns:svg="http://www.w3.org/2000/svg"><sodipodi:namedview
     id="namedview7"
     pagecolor="#505050"
     bordercolor="#eeeeee"
     borderopacity="1"
     inkscape:showpageshadow="0"
     inkscape:pageopacity="0"
     inkscape:pagecheckerboard="0"
     inkscape:deskcolor="#505050"
     inkscape:document-units="mm"
     showgrid="false"
     inkscape:zoom="0.73517612"
     inkscape:cx="429.82898"
     inkscape:cy="722.2759"
     inkscape:window-width="1920"
     inkscape:window-height="1008"
     inkscape:window-x="1920"
     inkscape:window-y="0"
     inkscape:window-maximized="1"
     inkscape:current-layer="layer1" /><defs
     id="defs2" /><g
     inkscape:label="Layer 1"
     inkscape:groupmode="layer"
     id="layer1"><path
       id="rect1-8"
       style="fill:#333333;stroke-width:0.308336"
       d="M 3.0216155,40.961034 V 233.24615 h 0.20551 L 26.328949,210.31689 V 40.961034 Z m 128.1900845,0 v 95.026116 a 60.151427,63.330777 0 0 1 16.49884,-2.46665 60.151427,63.330777 0 0 1 6.8085,0.4126 V 40.961034 Z m -50.351503,94.630776 0.02667,23.42761 11.908594,12.09214 a 60.151427,63.330777 0 0 1 8.522649,-14.52427 z m -3.224362,0.0403 -47.811125,48.08044 v 23.12222 l 47.811125,-47.72118 z" /><path
       id="circle524"
       style="fill:#333333;stroke-width:2.43895"
       d="m 147.72294,139.3785 a 57.226859,57.226859 0 0 0 -14.84553,3.20441 l 0.0353,16.71727 -24.19043,-0.087 a 57.226859,57.226859 0 0 0 -8.29566,12.74454 l 11.86408,11.81499 -17.198432,17.07501 a 57.226859,57.226859 0 0 0 3.204388,14.84551 l 16.717264,-0.0353 -0.087,24.19169 a 57.226859,57.226859 0 0 0 12.74456,8.29567 l 11.81494,-11.86535 17.07626,17.1997 a 57.226859,57.226859 0 0 0 14.84428,-3.20566 l -0.0353,-16.71726 24.19167,0.0868 a 57.226859,57.226859 0 0 0 8.29442,-12.74453 l -11.86409,-11.81367 17.20348,-17.08129 a 57.226859,57.226859 0 0 0 -3.17289,-14.84051 l -16.75381,0.0353 0.087,-24.23703 a 57.226859,57.226859 0 0 0 -12.73573,-8.25663 l -11.82251,11.87291 z" /><path
       id="path443-5"
       style="fill:#ffff00;stroke-width:1.26722"
       d="m 152.10505,166.73555 a 29.733761,29.733761 0 0 1 2.09344,0.0756 29.733846,29.733846 0 0 0 -2.09344,-0.0756 z m 2.09344,0.0756 a 29.733761,29.733761 0 0 1 18.7175,8.45057 c 0.0569,0.0426 0.11291,0.0889 0.16746,0.13988 a 29.733846,29.733846 0 0 0 -18.88504,-8.59036 z m -4.22969,0.004 a 29.733846,29.733846 0 0 0 -1.36038,0.14746 29.733761,29.733761 0 0 1 1.36038,-0.14746 z m -2.0922,0.22937 a 29.733846,29.733846 0 0 0 -1.52408,0.27206 29.733761,29.733761 0 0 1 1.52408,-0.27206 z m -2.0947,0.38038 a 29.733846,29.733846 0 0 0 -1.53543,0.38796 29.733761,29.733761 0 0 1 1.53543,-0.38796 z m -2.05439,0.52779 a 29.733846,29.733846 0 0 0 -1.55055,0.51137 29.733761,29.733761 0 0 1 1.55055,-0.51137 z m -2.00654,0.67007 a 29.733846,29.733846 0 0 0 -1.51904,0.621 29.733761,29.733761 0 0 1 1.51904,-0.621 z m -1.96368,0.81625 a 29.733846,29.733846 0 0 0 -1.51906,0.7507 29.733761,29.733761 0 0 1 1.51906,-0.7507 z m -1.86419,0.93333 a 29.733846,29.733846 0 0 0 -1.53672,0.89934 29.733761,29.733761 0 0 1 1.53672,-0.89934 z m 11.9094,0.0554 a 26.151377,26.151377 0 0 0 -14.48528,5.99815 c 3.97531,3.28676 9.05298,10.69504 12.34902,9.32978 3.29552,-1.36504 1.65017,-10.19249 2.13626,-15.32793 z m 4.60382,0 c 0.48611,5.13544 -1.16052,13.96289 2.135,15.32793 3.29536,1.36499 8.37153,-6.04073 12.34651,-9.32851 a 26.151377,26.151377 0 0 0 -14.48151,-5.99942 z m -18.30435,1.00515 a 29.733846,29.733846 0 0 0 -1.51279,1.03411 29.733761,29.733761 0 0 1 1.51279,-1.03411 z m -1.72818,1.19408 a 29.733846,29.733846 0 0 0 -1.47118,1.16637 29.733761,29.733761 0 0 1 1.47118,-1.16637 z m -1.611,1.2873 a 29.733846,29.733846 0 0 0 -1.46113,1.33642 29.733761,29.733761 0 0 1 1.46113,-1.33642 z m 40.39,1.55685 c 0.0576,0.0602 0.11138,0.12154 0.15869,0.18379 a 29.733761,29.733761 0 0 1 8.44933,18.69483 29.733846,29.733846 0 0 0 -8.60804,-18.87875 z m -42.25799,0.18768 a 29.733846,29.733846 0 0 0 -1.38177,1.50898 29.733761,29.733761 0 0 1 1.38177,-1.50898 z m -1.43971,1.57827 a 29.733846,29.733846 0 0 0 -1.20542,1.5178 29.733761,29.733761 0 0 1 1.20542,-1.5178 z m -1.34524,1.70674 a 29.733846,29.733846 0 0 0 -1.03286,1.51025 29.733761,29.733761 0 0 1 1.03286,-1.51025 z m 44.03779,0.73938 c -3.28674,3.97528 -10.69378,9.05294 -9.32851,12.34902 1.36503,3.29547 10.18995,1.64766 15.32543,2.13374 a 26.151377,26.151377 0 0 0 -5.99692,-14.48276 z m -40.08645,0.001 a 26.151377,26.151377 0 0 0 -5.99816,14.48151 c 5.1352,-0.48641 13.9628,1.16189 15.32794,-2.13374 1.3651,-3.29566 -6.0424,-8.37264 -9.32978,-12.34777 z m -5.1618,1.0505 a 29.733846,29.733846 0 0 0 -0.88927,1.51907 29.733761,29.733761 0 0 1 0.88927,-1.51907 z m -1.07696,1.87429 a 29.733846,29.733846 0 0 0 -0.74694,1.51023 29.733761,29.733761 0 0 1 0.74694,-1.51023 z m -0.94846,1.97251 a 29.733846,29.733846 0 0 0 -0.60585,1.47749 29.733761,29.733761 0 0 1 0.60585,-1.47749 z m -0.80237,2.038 a 29.733846,29.733846 0 0 0 -0.47864,1.45736 29.733761,29.733761 0 0 1 0.47864,-1.45736 z m -0.63861,2.05441 a 29.733846,29.733846 0 0 0 -0.36905,1.45987 29.733761,29.733761 0 0 1 0.36905,-1.45987 z m 28.6708,0.26199 a 7.5328977,7.5328977 0 0 0 -7.53235,7.5336 7.5328977,7.5328977 0 0 0 7.53235,7.53361 7.5328977,7.5328977 0 0 0 7.53361,-7.53361 7.5328977,7.5328977 0 0 0 -7.53361,-7.5336 z m -29.16582,1.86294 a 29.733846,29.733846 0 0 0 -0.25696,1.4271 29.733761,29.733761 0 0 1 0.25696,-1.4271 z m -0.35394,2.29496 a 29.733846,29.733846 0 0 0 -0.13351,1.24196 29.733761,29.733761 0 0 1 0.13351,-1.24196 z m 59.18058,1.31627 a 29.733761,29.733761 0 0 1 0.0744,2.05693 29.733846,29.733846 0 0 0 -0.0744,-2.05693 z m -0.004,4.1768 a 29.733761,29.733761 0 0 1 -0.14229,1.33516 29.733846,29.733846 0 0 0 0.14229,-1.33516 z m -59.30904,0.0171 a 29.733846,29.733846 0 0 0 0.1323,1.22934 29.733761,29.733761 0 0 1 -0.1323,-1.22934 z m 3.61251,0.16744 a 26.151377,26.151377 0 0 0 5.99815,14.48152 c 3.28738,-3.97508 10.69488,-9.05087 9.32979,-12.34651 -1.36515,-3.29572 -10.19273,-1.64859 -15.32794,-2.13501 z m 52.08152,0 c -5.13547,0.48616 -13.9604,-1.16051 -15.32543,2.13501 -1.36505,3.29551 6.03969,8.37146 9.32727,12.34651 a 26.151377,26.151377 0 0 0 5.99816,-14.48152 z m -55.46353,1.93977 a 29.733846,29.733846 0 0 0 0.25694,1.42712 29.733761,29.733761 0 0 1 -0.25694,-1.42712 z m 58.84678,0.003 a 29.733761,29.733761 0 0 1 -0.24561,1.36917 29.733846,29.733846 0 0 0 0.24561,-1.36917 z m -58.46387,2.08965 a 29.733846,29.733846 0 0 0 0.36404,1.44348 29.733761,29.733761 0 0 1 -0.36404,-1.44348 z m 58.07969,0.0121 a 29.733761,29.733761 0 0 1 -0.36779,1.45357 29.733846,29.733846 0 0 0 0.36779,-1.45357 z m -0.52649,2.04432 a 29.733761,29.733761 0 0 1 -0.49628,1.5077 29.733846,29.733846 0 0 0 0.49628,-1.5077 z m -57.0229,0.007 a 29.733846,29.733846 0 0 0 0.47611,1.446 29.733761,29.733761 0 0 1 -0.47611,-1.446 z m 56.35403,1.99518 a 29.733761,29.733761 0 0 1 -0.62724,1.53041 29.733846,29.733846 0 0 0 0.62724,-1.53041 z m -55.68015,0.0171 a 29.733846,29.733846 0 0 0 0.60586,1.47751 29.733761,29.733761 0 0 1 -0.60586,-1.47751 z m 22.47864,0.13837 c -3.27108,0.0862 -7.80783,6.5017 -11.42953,9.49606 a 26.151377,26.151377 0 0 0 14.48529,5.99693 c -0.48643,-5.13531 1.15946,-13.96287 -2.13626,-15.32797 -0.2932,-0.1217 -0.60021,-0.17232 -0.9195,-0.16502 z m 10.71533,0 c -0.31942,-0.007 -0.62757,0.0433 -0.92076,0.16502 -3.29569,1.3651 -1.64858,10.19264 -2.13501,15.32797 a 26.151377,26.151377 0 0 0 14.48152,-5.99944 c -3.6213,-2.99524 -8.15538,-9.4075 -11.42575,-9.49355 z m 21.67753,1.78991 a 29.733761,29.733761 0 0 1 -0.75321,1.52284 29.733846,29.733846 0 0 0 0.75321,-1.52284 z m -54.06412,0.0122 a 29.733846,29.733846 0 0 0 0.74692,1.51023 29.733761,29.733761 0 0 1 -0.74692,-1.51023 z m 0.93462,1.86545 a 29.733846,29.733846 0 0 0 0.88928,1.51905 29.733761,29.733761 0 0 1 -0.88928,-1.51905 z m 52.18355,0.009 a 29.733761,29.733761 0 0 1 -0.86786,1.4838 29.733846,29.733846 0 0 0 0.86786,-1.4838 z m -51.11667,1.78988 a 29.733846,29.733846 0 0 0 1.03288,1.51024 29.733761,29.733761 0 0 1 -1.03288,-1.51024 z m 50.04098,0.0244 a 29.733761,29.733761 0 0 1 -1.02151,1.49009 29.733846,29.733846 0 0 0 1.02151,-1.49009 z m -48.86703,1.67651 a 29.733846,29.733846 0 0 0 1.19155,1.50269 29.733761,29.733761 0 0 1 -1.19155,-1.50269 z m 47.70694,0.003 a 29.733761,29.733761 0 0 1 -1.1966,1.50771 29.733846,29.733846 0 0 0 1.1966,-1.50771 z m -46.4272,1.60346 a 29.733846,29.733846 0 0 0 1.36411,1.48881 29.733761,29.733761 0 0 1 -1.36411,-1.48881 z m 45.14622,0.003 a 29.733761,29.733761 0 0 1 -1.36664,1.49134 29.733846,29.733846 0 0 0 1.36664,-1.49134 z m -1.76092,1.88433 a 29.733761,29.733761 0 0 1 -1.53544,1.40444 29.733846,29.733846 0 0 0 1.53544,-1.40444 z m -41.61433,0.009 a 29.733846,29.733846 0 0 0 1.46113,1.33642 29.733761,29.733761 0 0 1 -1.46113,-1.33642 z m 40.05749,1.41199 a 29.733761,29.733761 0 0 1 -1.55686,1.23692 29.733846,29.733846 0 0 0 1.55686,-1.23692 z m -38.45654,0.0453 a 29.733846,29.733846 0 0 0 1.4712,1.1664 29.733761,29.733761 0 0 1 -1.4712,-1.1664 z m 36.74727,1.30367 a 29.733761,29.733761 0 0 1 -1.5556,1.06565 29.733846,29.733846 0 0 0 1.5556,-1.06565 z m -35.0607,0.022 a 29.733846,29.733846 0 0 0 1.51279,1.03415 29.733761,29.733761 0 0 1 -1.51279,-1.03415 z m 33.28594,1.18025 a 29.733761,29.733761 0 0 1 -1.59212,0.9321 29.733846,29.733846 0 0 0 1.59212,-0.9321 z m -31.51874,0.0152 a 29.733846,29.733846 0 0 0 1.53672,0.89935 29.733761,29.733761 0 0 1 -1.53672,-0.89935 z m 29.67217,1.05176 a 29.733761,29.733761 0 0 1 -1.60723,0.79607 29.733846,29.733846 0 0 0 1.60723,-0.79607 z m -27.79032,0.0302 a 29.733846,29.733846 0 0 0 1.51906,0.75074 29.733761,29.733761 0 0 1 -1.51906,-0.75074 z m 25.82915,0.9195 a 29.733761,29.733761 0 0 1 -1.58834,0.65123 29.733846,29.733846 0 0 0 1.58834,-0.65123 z m -23.86545,0.0265 a 29.733846,29.733846 0 0 0 1.51905,0.62099 29.733761,29.733761 0 0 1 -1.51905,-0.62099 z m 21.85262,0.77342 a 29.733761,29.733761 0 0 1 -1.57827,0.52019 29.733846,29.733846 0 0 0 1.57827,-0.52019 z m -19.87759,0.007 a 29.733846,29.733846 0 0 0 1.55055,0.5114 29.733761,29.733761 0 0 1 -1.55055,-0.5114 z m 17.8106,0.64366 a 29.733761,29.733761 0 0 1 -1.56945,0.39677 29.733846,29.733846 0 0 0 1.56945,-0.39677 z m -15.74109,0.007 a 29.733846,29.733846 0 0 0 1.53544,0.38793 29.733761,29.733761 0 0 1 -1.53544,-0.38793 z m 13.64639,0.4887 a 29.733761,29.733761 0 0 1 -1.5644,0.27965 29.733846,29.733846 0 0 0 1.5644,-0.27965 z m -11.54035,0.007 a 29.733846,29.733846 0 0 0 1.5241,0.27209 29.733761,29.733761 0 0 1 -1.5241,-0.27209 z m 9.28946,0.35017 a 29.733761,29.733761 0 0 1 -1.40443,0.15109 29.733846,29.733846 0 0 0 1.40443,-0.15109 z m -7.03355,0.004 a 29.733846,29.733846 0 0 0 1.36038,0.14746 29.733761,29.733761 0 0 1 -1.36038,-0.14746 z" /></g><g
     inkscape:groupmode="layer"
     id="layer3"
     inkscape:label="Layer 2" /><g
     inkscape:groupmode="layer"
     id="layer4"
     inkscape:label="Layer 3" /></svg>
